<?xml version="1.0" encoding="UTF-8" standalone="no"?><!DOCTYPE svg PUBLIC "-//W3C//DTD SVG 1.1//EN" "http://www.w3.org/Graphics/SVG/1.1/DTD/svg11.dtd"><svg width="100%" height="100%" viewBox="0 0 403 230" version="1.1" xmlns="http://www.w3.org/2000/svg" xmlns:xlink="http://www.w3.org/1999/xlink" xml:space="preserve" xmlns:serif="http://www.serif.com/" style="fill-rule:evenodd;clip-rule:evenodd;stroke-linecap:round;stroke-linejoin:round;stroke-miterlimit:10;"><g id="BACKGROUNDv"></g><rect id="Artboard1" x="0" y="0" width="402.367" height="229.548" style="fill:none;"/><g id="OBJECTS"><path d="M326.116,219.056c0,0 54.259,-24.13 52.997,-72.813c-1.262,-48.683 -52.685,-71.322 -87.596,-41.265c-34.91,30.057 -57.504,4.852 -75.589,-20.547c-18.086,-25.4 -58.433,-57.456 -111.37,-42.644c-55.452,15.517 -72.516,71.675 -67.024,109.15c3.946,26.918 18.375,49.74 38.038,67.276c0.64,0.571 1.294,1.134 1.965,1.69l248.579,-0.847Z" style="fill:#fed7d7;fill-rule:nonzero;"/><rect x="178.593" y="202.973" width="45.354" height="11.098" style="fill:#ff5a6f;"/><path d="M232.512,219.862l-62.483,0c-1.599,0 -2.896,-1.297 -2.896,-2.896c0,-1.598 1.297,-2.894 2.896,-2.894l62.483,0c1.6,0 2.896,1.296 2.896,2.894c0,1.599 -1.296,2.896 -2.896,2.896" style="fill:#ff7d8e;fill-rule:nonzero;"/><path d="M303.313,75.26c0,-3.614 -2.929,-6.543 -6.543,-6.543l-191.001,0c-3.614,0 -6.543,2.929 -6.543,6.543l0,110.554l204.087,0l0,-110.554Z" style="fill:#ff5a6f;fill-rule:nonzero;"/><rect x="107.984" y="78.077" width="186.573" height="99.197" style="fill:#eaedfb;"/><path d="M105.769,204.109l191.001,0c3.614,0 6.543,-2.93 6.543,-6.543l0,-11.752l-204.087,0l0,11.752c0,3.613 2.929,6.543 6.543,6.543" style="fill:#fff;fill-rule:nonzero;"/><path d="M205.149,194.961c0,2.143 -1.737,3.879 -3.879,3.879c-2.142,0 -3.88,-1.736 -3.88,-3.879c0,-2.143 1.738,-3.879 3.88,-3.879c2.142,0 3.879,1.736 3.879,3.879" style="fill:#ff5a6f;fill-rule:nonzero;"/><g opacity="0.57"><path d="M159.794,78.077l-42.594,99.21l15.074,0l43.061,-99.21l-15.541,0Z" style="fill:#fff;fill-rule:nonzero;"/><path d="M268.459,78.077l-42.594,99.21l15.073,0l43.061,-99.21l-15.54,0Z" style="fill:#fff;fill-rule:nonzero;"/><path d="M194.556,78.077l-42.594,99.21l44.615,0l43.061,-99.21l-45.082,0Z" style="fill:#fff;fill-rule:nonzero;"/></g><rect x="121.271" y="98.786" width="79.183" height="56.088" style="fill:#fff;stroke:#a2c9f8;stroke-width:3.01px;"/><path d="M209.531,103.016l72.374,0" style="fill:none;fill-rule:nonzero;stroke:#fff;stroke-width:2.81px;stroke-linecap:butt;stroke-linejoin:miter;"/><path d="M209.531,119.94l44.5,0" style="fill:none;fill-rule:nonzero;stroke:#fff;stroke-width:2.81px;stroke-linecap:butt;stroke-linejoin:miter;"/><path d="M209.531,111.39l12.763,0" style="fill:none;fill-rule:nonzero;stroke:#fff;stroke-width:2.81px;stroke-linecap:butt;stroke-linejoin:miter;"/><path d="M209.531,130.94l72.374,0" style="fill:none;fill-rule:nonzero;stroke:#fff;stroke-width:2.81px;stroke-linecap:butt;stroke-linejoin:miter;"/><path d="M209.531,147.865l72.374,0" style="fill:none;fill-rule:nonzero;stroke:#fff;stroke-width:2.81px;stroke-linecap:butt;stroke-linejoin:miter;"/><path d="M209.531,139.315l42.7,0" style="fill:none;fill-rule:nonzero;stroke:#fff;stroke-width:2.81px;stroke-linecap:butt;stroke-linejoin:miter;"/><path d="M176.688,126.5c0,9.606 -7.788,17.395 -17.396,17.395c-9.606,0 -17.395,-7.789 -17.395,-17.395c0,-9.607 7.789,-17.396 17.395,-17.396c9.608,0 17.396,7.789 17.396,17.396" style="fill:#f04365;fill-rule:nonzero;"/><path d="M150.475,126.5l17.09,0" style="fill:none;fill-rule:nonzero;stroke:#fff;stroke-width:4.21px;"/><path d="M315.512,159.913l3.759,55.29l5.934,-0.015l1.233,-55.301l-10.926,0.026Z" style="fill:#1b1754;fill-rule:nonzero;"/><path d="M314.346,219.733l10.827,0l0,-5.021l-5.806,0c-2.773,0 -5.021,2.249 -5.021,5.021" style="fill:#243051;fill-rule:nonzero;"/><path d="M327.16,219.733l11.29,0l-0.463,-5.021l-5.806,0c-2.773,0 -5.021,2.249 -5.021,5.021" style="fill:#243051;fill-rule:nonzero;"/><path d="M334.205,159.947l3.782,54.766l-5.808,0.181l-9.702,-54.947l11.728,0Z" style="fill:#2a2b7b;fill-rule:nonzero;"/><path d="M324.072,131.478l15.413,13.759c1.278,1.141 3.196,1.183 4.524,0.099c1.512,-1.235 1.714,-3.472 0.447,-4.959c0,0 -7.445,-9.988 -11.615,-13.305l-8.769,4.406Z" style="fill:#f04365;fill-rule:nonzero;"/><path d="M347.863,164.968c0,2.045 -1.658,3.703 -3.703,3.703c-2.045,0 -3.702,-1.658 -3.702,-3.703c0,-2.045 1.657,-3.702 3.702,-3.702c2.045,0 3.703,1.657 3.703,3.702" style="fill:#f89a6e;fill-rule:nonzero;"/><path d="M339.39,143.684l2.032,18.418l5.284,0l-1.203,-19.018c-0.128,-1.796 -1.765,-3.097 -3.544,-2.816c-1.638,0.259 -2.775,1.77 -2.569,3.416" style="fill:#f04365;fill-rule:nonzero;"/><path d="M322.487,124.486c0,0 -7.56,0.238 -7.963,7.801c-0.406,7.607 0.882,27.66 0.882,27.66l18.799,0l0.475,-24.561c1.174,-6.564 -2.151,-10.737 -8.893,-10.99c-1.012,-0.038 -2.11,-0.012 -3.3,0.09" style="fill:#f04365;fill-rule:nonzero;"/><path d="M334.575,140.854l-3.236,-2.889l3.12,8.877l0.116,-5.988Z" style="fill:#d72e57;fill-rule:nonzero;"/><path d="M296.89,117.974c0,2.045 -1.657,3.703 -3.702,3.703c-2.045,0 -3.703,-1.658 -3.703,-3.703c0,-2.045 1.658,-3.703 3.703,-3.703c2.045,0 3.702,1.658 3.702,3.703" style="fill:#f89a6e;fill-rule:nonzero;"/><path d="M304.862,138.084l-7.972,-18.106l-5.083,1.604l7.189,18.325c0.488,1.734 2.356,2.677 4.041,2.042c1.552,-0.585 2.359,-2.295 1.825,-3.865" style="fill:#f04365;fill-rule:nonzero;"/><path d="M319.551,125.148c-9.961,4.138 -18.935,10.491 -18.935,10.491c-1.502,0.824 -2.181,2.618 -1.602,4.232c0.659,1.838 2.702,2.775 4.525,2.076l15.191,-7.392l0.821,-9.407Z" style="fill:#f04365;fill-rule:nonzero;"/><path d="M314.445,136.64c0.001,-0.001 0.079,-4.354 0.079,-4.354l-3.442,5.991l3.363,-1.637Z" style="fill:#d72e57;fill-rule:nonzero;"/><path d="M320.299,120.191l0.238,5.08c0.052,1.106 0.745,2.078 1.775,2.487c1.953,0.776 4.036,-0.783 3.843,-2.876l-0.306,-5.048l-5.55,0.357Z" style="fill:#f89a6e;fill-rule:nonzero;"/><path d="M320.47,123.819c0,0 4.707,0.646 5.379,-3.985c0.672,-4.631 -4.48,-2.716 -4.48,-2.716l-1.036,3.805l0.137,2.896Z" style="fill:#e88057;fill-rule:nonzero;"/><path d="M316.989,108.169c-3.11,3.352 -2.914,8.591 0.438,11.701c3.353,3.11 8.592,2.914 11.702,-0.439c3.11,-3.352 2.914,-8.591 -0.439,-11.701c-3.352,-3.11 -8.592,-2.914 -11.701,0.439" style="fill:#f89a6e;fill-rule:nonzero;"/><g><clipPath id="_clip1"><path d="M316.99,108.169c-3.111,3.351 -2.915,8.591 0.438,11.7c3.353,3.11 8.591,2.914 11.701,-0.438c3.11,-3.353 2.914,-8.592 -0.438,-11.701c-1.594,-1.479 -3.615,-2.21 -5.63,-2.21c-2.223,0 -4.44,0.89 -6.071,2.649Z" clip-rule="nonzero"/></clipPath><g clip-path="url(#_clip1)"><path d="M325.483,116.291c0,0 -3.268,5.918 1.33,7.545c4.598,1.628 5.918,-11.167 5.918,-11.167l-4.975,-9.751l-12.129,-0.841l-0.677,4.2c0,0 1.158,4.089 11.33,7.938l-0.797,2.076Z" style="fill:#243051;fill-rule:nonzero;"/><path d="M323.006,111.639l1.436,4.825l3.655,-2.136l-5.091,-2.689Z" style="fill:#243051;fill-rule:nonzero;"/></g></g><path d="M324.68,114.64c-0.831,0.896 -0.778,2.298 0.118,3.13c0.897,0.831 2.298,0.779 3.129,-0.117c0.832,-0.898 0.779,-2.298 -0.117,-3.13c-0.897,-0.832 -2.298,-0.779 -3.13,0.117" style="fill:#f89a6e;fill-rule:nonzero;"/><path d="M314.594,111.13c0,0 -0.407,-5.923 4.576,-9.009c4.109,-2.545 9.656,-1.155 11.928,3.111c1.067,2.003 1.673,3.964 0.967,7.841l-17.471,-1.943Z" style="fill:#fdd63b;fill-rule:nonzero;"/><path d="M331.818,113.932c-0.032,0 -0.064,-0.001 -0.098,-0.005l-19.873,-2.134c-0.473,-0.053 -0.813,-0.48 -0.76,-0.953c0.053,-0.472 0.471,-0.807 0.953,-0.761l19.873,2.135c0.472,0.053 0.813,0.48 0.76,0.953c-0.049,0.44 -0.423,0.765 -0.855,0.765" style="fill:#f2a62f;fill-rule:nonzero;"/><path d="M313.47,28.903l-0.104,11.167l-3.811,0c0,-4.224 -0.077,-6.917 -0.077,-11.167l3.992,0Zm0.271,15.251c0,2.988 -4.534,2.988 -4.534,0c0,-3.014 4.534,-3.014 4.534,0" style="fill:#fff;fill-rule:nonzero;"/><path d="M212.586,9.864l1.271,3.309c0.784,2.036 2.392,3.645 4.427,4.427l3.31,1.272l-3.31,1.272c-2.035,0.783 -3.643,2.391 -4.427,4.427l-1.271,3.309l-1.272,-3.309c-0.783,-2.036 -2.391,-3.644 -4.427,-4.427l-3.309,-1.272l3.309,-1.272c2.036,-0.782 3.644,-2.391 4.427,-4.427l1.272,-3.309Z" style="fill:#eaedfb;fill-rule:nonzero;"/><path d="M248.096,38.379l0.854,2.218c0.524,1.365 1.602,2.443 2.966,2.968l2.219,0.853l-2.219,0.852c-1.364,0.525 -2.442,1.603 -2.966,2.968l-0.854,2.218l-0.853,-2.218c-0.524,-1.365 -1.602,-2.443 -2.967,-2.968l-2.218,-0.852l2.218,-0.853c1.365,-0.525 2.443,-1.603 2.967,-2.968l0.853,-2.218Z" style="fill:#eaedfb;fill-rule:nonzero;"/><path d="M32.935,57.332l0.692,1.801c0.427,1.108 1.302,1.984 2.41,2.409l1.801,0.693l-1.801,0.692c-1.108,0.426 -1.983,1.301 -2.41,2.409l-0.692,1.802l-0.692,-1.802c-0.426,-1.108 -1.302,-1.983 -2.41,-2.409l-1.8,-0.692l1.8,-0.693c1.108,-0.425 1.984,-1.301 2.41,-2.409l0.692,-1.801Z" style="fill:#eaedfb;fill-rule:nonzero;"/><path d="M361.23,66.458l0.692,1.801c0.426,1.108 1.301,1.983 2.41,2.409l1.8,0.692l-1.8,0.693c-1.109,0.426 -1.984,1.301 -2.41,2.409l-0.692,1.801l-0.692,-1.801c-0.426,-1.108 -1.302,-1.983 -2.41,-2.409l-1.8,-0.693l1.8,-0.692c1.108,-0.426 1.984,-1.301 2.41,-2.409l0.692,-1.801Z" style="fill:#eaedfb;fill-rule:nonzero;"/><path d="M111.128,29.674l3.566,3.625c0.777,0.79 1.943,1.052 2.982,0.669c1.972,-0.725 2.484,-3.276 0.944,-4.706l-3.596,-3.556l-3.896,3.968Z" style="fill:#f89a6e;fill-rule:nonzero;"/><path d="M113.676,32.264c0,0 2.229,-4.597 1.348,-6.558c-1.919,-4.267 -5.149,0.966 -5.149,0.966l1.767,3.525l2.034,2.067Z" style="fill:#e88057;fill-rule:nonzero;"/><path d="M100.641,22.927c-0.08,4.572 3.562,8.344 8.134,8.424c4.572,0.08 8.344,-3.562 8.424,-8.134c0.08,-4.572 -3.562,-8.343 -8.134,-8.423c-4.572,-0.08 -8.344,3.561 -8.424,8.133" style="fill:#f89a6e;fill-rule:nonzero;"/><g><clipPath id="_clip2"><path d="M100.641,22.927c-0.08,4.572 3.563,8.344 8.135,8.424c4.572,0.08 8.344,-3.562 8.424,-8.134c0.08,-4.572 -3.563,-8.343 -8.135,-8.423c-0.049,-0.001 -0.098,-0.001 -0.148,-0.001c-4.505,0 -8.196,3.612 -8.276,8.134Z" clip-rule="nonzero"/></clipPath><g clip-path="url(#_clip2)"><path d="M112.389,23.311c0,0 1.514,6.588 6.024,4.733c4.511,-1.855 -3.042,-12.267 -3.042,-12.267l-10.211,-3.945l-9.596,7.466l1.067,6.466c0,0 3.424,-2.438 13.569,-6.357l2.189,3.904Z" style="fill:#243051;fill-rule:nonzero;"/><path d="M107.439,21.498l4.288,2.637l1.299,-4.03l-5.587,1.393Z" style="fill:#243051;fill-rule:nonzero;"/></g></g><path d="M112.864,24.869c0,0 7.143,19.461 16.034,10.582c7.886,-7.876 -4.039,-12.665 -7.269,-13.508c-2.47,-0.645 -3.416,-1.489 -6.533,-4.383l-6.182,0.889l3.95,6.42Z" style="fill:#243051;fill-rule:nonzero;"/><path d="M110.688,22.617c-0.021,1.223 0.952,2.231 2.176,2.252c1.222,0.022 2.231,-0.952 2.253,-2.175c0.02,-1.223 -0.953,-2.231 -2.176,-2.252c-1.223,-0.022 -2.232,0.952 -2.253,2.175" style="fill:#f89a6e;fill-rule:nonzero;"/><path d="M99.827,24.204c0,0 -3.264,-4.959 -0.44,-10.095c2.328,-4.235 7.843,-5.75 11.917,-3.151c1.914,1.221 3.405,2.631 4.694,6.354l-16.171,6.892Z" style="fill:#fdd63b;fill-rule:nonzero;"/><path d="M116.205,18.181c-0.027,0.016 -0.057,0.031 -0.087,0.044l-18.358,7.904c-0.438,0.187 -0.944,-0.018 -1.13,-0.456c-0.186,-0.437 0.014,-0.934 0.456,-1.13l18.358,-7.904c0.438,-0.187 0.945,0.018 1.13,0.456c0.173,0.407 0.008,0.874 -0.369,1.086" style="fill:#f2a62f;fill-rule:nonzero;"/><path d="M99.479,70.479l-18.289,18.754l-4.676,-2.068l15.828,-22.452c1.551,-2.571 5.215,-2.745 7.004,-0.333c1.055,1.424 1.108,4.619 0.133,6.099" style="fill:#1b1754;fill-rule:nonzero;"/><path d="M69.461,87.064l9.245,6.479l2.503,-4.377l-4.756,-3.332c-2.271,-1.591 -5.401,-1.041 -6.992,1.23" style="fill:#243051;fill-rule:nonzero;"/><path d="M112.124,59.3l-18.505,3.293l3.815,7.222l24.824,0c0,0 7.464,-0.176 4.018,-8.357l-14.152,-2.158Z" style="fill:#2a2b7b;fill-rule:nonzero;"/><path d="M100.451,64.95l8.811,29.154l-4.967,2.849l-13.933,-28.161c-1.42,-2.646 0.299,-5.887 3.286,-6.195c1.763,-0.181 6.028,0.759 6.803,2.353" style="fill:#2a2b7b;fill-rule:nonzero;"/><path d="M102.019,103.589l9.234,-4.861l-1.992,-4.624l-5.138,2.705c-2.454,1.291 -3.395,4.327 -2.104,6.78" style="fill:#243051;fill-rule:nonzero;"/><path d="M111.062,37.351c0,0 0.747,-3.269 1.695,-4.277c0.674,-0.717 3.104,-3.007 4.439,-3.499c0.396,-0.147 0.835,-0.1 1.196,0.12c1.597,0.977 5.986,4.153 8.139,10.621c2.073,6.23 2.516,23.959 2.516,23.959c-5.893,3.829 -16.923,-4.976 -16.923,-4.976c0.283,-11.047 -2.446,-11.607 -1.062,-21.948" style="fill:#f04365;fill-rule:nonzero;"/><path d="M109.875,59.7l8.69,0.398c2.952,0.17 4.262,-2.04 4.403,-3.898l0.386,-14.992l-13.479,18.492Z" style="fill:#d72e57;fill-rule:nonzero;"/><path d="M102.052,57.572l-5.141,-1.837c-0.416,-0.149 -0.88,-0.07 -1.224,0.21l-2.287,1.863c-0.671,0.547 -0.52,1.611 0.277,1.95c0.406,0.173 0.875,0.098 1.208,-0.193l1.097,-0.963c0,0 3.765,2.154 5.548,1.563l0.522,-2.593Z" style="fill:#f97d7d;fill-rule:nonzero;"/><path d="M115.153,34.74l-0.9,16.832l-13.69,3.554l0.568,5.124l16.727,-1.749c1.2,-0.08 2.305,-0.63 3.088,-1.505c0.434,-0.485 0.662,-1.119 0.739,-1.764l2.077,-17.457l-8.609,-3.035Z" style="fill:#f04365;fill-rule:nonzero;"/><path d="M92.132,64.278l19.421,-3.399c0.596,-0.104 0.994,-0.671 0.89,-1.267c-0.105,-0.596 -0.672,-0.994 -1.267,-0.89l-19.421,3.399c-0.596,0.105 -0.995,0.672 -0.89,1.267c0.104,0.596 0.671,0.994 1.267,0.89" style="fill:#243051;fill-rule:nonzero;"/><path d="M92.274,63.235c-0.113,0 -0.227,-0.047 -0.308,-0.139l-11.692,-13.249c-0.149,-0.17 -0.133,-0.429 0.036,-0.579c0.17,-0.15 0.429,-0.135 0.579,0.036l11.692,13.25c0.15,0.169 0.134,0.429 -0.036,0.578c-0.078,0.07 -0.175,0.103 -0.271,0.103" style="fill:#243051;fill-rule:nonzero;"/><path d="M114.995,29.387c0,0 5.538,13.319 13.111,6.681c7.574,-6.639 -8.259,-10.466 -8.259,-10.466l-4.852,3.785Z" style="fill:#243051;fill-rule:nonzero;"/><path d="M265.904,217.535l9.882,-25.539c0.471,-1.218 2.193,-1.218 2.665,0l9.882,25.539l-22.429,0Z" style="fill:#f2a62f;fill-rule:nonzero;"/><g><clipPath id="_clip3"><path d="M275.786,191.995l-9.881,25.539l22.428,0l-9.881,-25.539c-0.237,-0.609 -0.785,-0.913 -1.334,-0.913c-0.548,0 -1.097,0.304 -1.332,0.913Z" clip-rule="nonzero"/></clipPath><g clip-path="url(#_clip3)"><rect x="268.193" y="197.487" width="17.545" height="4.914" style="fill:#fafafa;"/><rect x="267.235" y="206.775" width="19.844" height="4.914" style="fill:#fafafa;"/></g></g><path d="M289.877,219.687l-25.404,0c-0.982,0 -1.778,-0.796 -1.778,-1.777c0,-0.982 0.796,-1.778 1.778,-1.778l25.404,0c0.981,0 1.777,0.796 1.777,1.778c0,0.981 -0.796,1.777 -1.777,1.777" style="fill:#eb9924;fill-rule:nonzero;"/><rect x="71.531" y="188.106" width="7.725" height="21.842" style="fill:#8bbdf8;"/><rect x="112.264" y="188.106" width="7.726" height="21.842" style="fill:#8bbdf8;"/><path d="M124.257,219.744l-57.44,0c-1.862,0 -3.372,-1.51 -3.372,-3.373l0,-4.273c0,-1.862 1.51,-3.372 3.372,-3.372l57.44,0c1.861,0 3.371,1.51 3.371,3.372l0,4.273c0,1.863 -1.51,3.373 -3.371,3.373" style="fill:#ff5a6f;fill-rule:nonzero;"/><path d="M123.195,189.877l-54.609,0c-2.84,0 -5.141,-2.302 -5.141,-5.142l0,-9.414c0,-2.84 2.301,-5.141 5.141,-5.141l54.609,0c2.84,0 5.142,2.301 5.142,5.141l0,9.414c0,2.84 -2.302,5.142 -5.142,5.142" style="fill:#f2a62f;fill-rule:nonzero;"/><g><clipPath id="_clip4"><path d="M68.586,170.18c-2.839,0 -5.141,2.302 -5.141,5.142l0,9.414c0,2.839 2.302,5.141 5.141,5.141l54.609,0c2.84,0 5.142,-2.302 5.142,-5.141l0,-9.414c0,-2.84 -2.302,-5.142 -5.142,-5.142l-54.609,0Z" clip-rule="nonzero"/></clipPath><g clip-path="url(#_clip4)"><path d="M62.632,196.788l-11.695,0l27.25,-30.231l11.695,0l-27.25,30.231Z" style="fill:#fff;fill-rule:nonzero;"/><path d="M110.135,196.788l-11.695,0l27.251,-30.231l11.694,0l-27.25,30.231Z" style="fill:#fff;fill-rule:nonzero;"/><path d="M85.895,196.788l-11.695,0l27.251,-30.231l11.694,0l-27.25,30.231Z" style="fill:#fff;fill-rule:nonzero;"/></g></g><path d="M19.616,219.903l360.247,0" style="fill:none;fill-rule:nonzero;stroke:#102236;stroke-width:0.65px;"/></g><g id="DESIGNED-BY-FREEPIK" serif:id="DESIGNED BY FREEPIK"></g></svg>